# xmcd
#
# Track frame offsets:
#	150
#	12832
#	31178
#	43003
#	55660
#	65724
#	76933
#	101385
#	116868
#	150444
#	165662
#	179927
#	192215
#	202262
#	216368
#
# Disc length: 3442 seconds
#
# Revision: 0
# Processed by: cddbd v1.4PL0 Copyright (c) Steve Scherf et al.
# Submitted via: audiograbber 1.80.04
#
DISCID=d10d700f
DTITLE=Various Artist - Soul Volume 2
DYEAR=2001
DGENRE=Soul
TTITLE0=Percy Sledge - When A Man Loves A Woman
TTITLE1=The Temptations - Ball Of Confusion (That's What The World Is Today)
TTITLE2=Stephanie Mills - Never Knew Love Like This Before
TTITLE3=Sam and Dave - Soul Man
TTITLE4=Betty Everett - It's In His Kiss
TTITLE5=Lee Dorsey - Holy Cow
TTITLE6=Marvin Gaye - Let's Get It On (live)
TTITLE7=Mary Wells - My Guy
TTITLE8=Funkadelic - One Nation Under A Groove
TTITLE9=Peggy Scott - Every Little Bit Hurts
TTITLE10=George McCrae - Rock Your Baby
TTITLE11=Jerry Butler - For Your Precious Love
TTITLE12=The Drifters - Save The Last Dance For Me
TTITLE13=Dionne Warwick - There's A Long Road Ahead Of Us
TTITLE14=James Brown - It's A Man's World (live)
EXTD=
EXTT0=
EXTT1=
EXTT2=
EXTT3=
EXTT4=
EXTT5=
EXTT6=
EXTT7=
EXTT8=
EXTT9=
EXTT10=
EXTT11=
EXTT12=
EXTT13=
EXTT14=
PLAYORDER=
